<mxfile host="65bd71144e">
    <diagram id="K4Aeg-x5-EhiiIRRC4Lz" name="Page-1">
        <mxGraphModel dx="4008" dy="1668" grid="1" gridSize="10" guides="1" tooltips="1" connect="1" arrows="1" fold="1" page="1" pageScale="1" pageWidth="1654" pageHeight="1169" math="0" shadow="0">
            <root>
                <mxCell id="0"/>
                <mxCell id="1" parent="0"/>
                <mxCell id="13" style="edgeStyle=none;html=1;entryX=0.5;entryY=0;entryDx=0;entryDy=0;fontSize=14;" edge="1" parent="1" target="8">
                    <mxGeometry relative="1" as="geometry">
                        <mxPoint x="213" y="429" as="sourcePoint"/>
                    </mxGeometry>
                </mxCell>
                <mxCell id="19" style="edgeStyle=none;html=1;exitX=1;exitY=0.5;exitDx=0;exitDy=0;fontSize=14;" edge="1" parent="1" source="8">
                    <mxGeometry relative="1" as="geometry">
                        <mxPoint x="373" y="516.5" as="targetPoint"/>
                    </mxGeometry>
                </mxCell>
                <mxCell id="27" value="" style="group" vertex="1" connectable="0" parent="1">
                    <mxGeometry x="163" y="149" width="100" height="50" as="geometry"/>
                </mxCell>
                <mxCell id="2" value="" style="ellipse;whiteSpace=wrap;html=1;" vertex="1" parent="27">
                    <mxGeometry width="100" height="50" as="geometry"/>
                </mxCell>
                <mxCell id="3" value="Start" style="text;html=1;strokeColor=none;fillColor=none;align=center;verticalAlign=middle;whiteSpace=wrap;rounded=0;fontSize=14;" vertex="1" parent="27">
                    <mxGeometry x="20" y="10" width="60" height="30" as="geometry"/>
                </mxCell>
                <mxCell id="28" value="" style="group" vertex="1" connectable="0" parent="1">
                    <mxGeometry x="128" y="239" width="170" height="50" as="geometry"/>
                </mxCell>
                <mxCell id="22" value="" style="shape=hexagon;perimeter=hexagonPerimeter2;whiteSpace=wrap;html=1;fixedSize=1;fontSize=14;" vertex="1" parent="28">
                    <mxGeometry width="170" height="50" as="geometry"/>
                </mxCell>
                <mxCell id="23" value="Suku Bunga = 3%" style="text;html=1;strokeColor=none;fillColor=none;align=center;verticalAlign=middle;whiteSpace=wrap;rounded=0;fontSize=14;" vertex="1" parent="28">
                    <mxGeometry x="20" y="10" width="130" height="30" as="geometry"/>
                </mxCell>
                <mxCell id="29" value="" style="group" vertex="1" connectable="0" parent="1">
                    <mxGeometry x="128" y="469" width="170" height="95" as="geometry"/>
                </mxCell>
                <mxCell id="8" value="" style="rhombus;whiteSpace=wrap;html=1;fontSize=14;" vertex="1" parent="29">
                    <mxGeometry width="170" height="95" as="geometry"/>
                </mxCell>
                <mxCell id="9" value="Bayar Cicilan Tetap?" style="text;html=1;strokeColor=none;fillColor=none;align=center;verticalAlign=middle;whiteSpace=wrap;rounded=0;fontSize=14;" vertex="1" parent="29">
                    <mxGeometry x="40" y="32.5" width="90" height="30" as="geometry"/>
                </mxCell>
                <mxCell id="30" value="" style="group" vertex="1" connectable="0" parent="1">
                    <mxGeometry x="101.75" y="359" width="222.5" height="70" as="geometry"/>
                </mxCell>
                <mxCell id="4" value="" style="shape=parallelogram;perimeter=parallelogramPerimeter;whiteSpace=wrap;html=1;fixedSize=1;" vertex="1" parent="30">
                    <mxGeometry width="222.5" height="70" as="geometry"/>
                </mxCell>
                <mxCell id="5" value="input nominal pinjaman&lt;br&gt;input jumlah cicilan per bulan" style="text;html=1;strokeColor=none;fillColor=none;align=center;verticalAlign=middle;whiteSpace=wrap;rounded=0;fontSize=14;container=1;" vertex="1" parent="30">
                    <mxGeometry x="31.25" y="20" width="160" height="30" as="geometry"/>
                </mxCell>
                <mxCell id="31" value="" style="group" vertex="1" connectable="0" parent="1">
                    <mxGeometry x="128" y="629" width="170" height="90" as="geometry"/>
                </mxCell>
                <mxCell id="15" value="" style="rhombus;whiteSpace=wrap;html=1;fontSize=14;" vertex="1" parent="31">
                    <mxGeometry width="170" height="90" as="geometry"/>
                </mxCell>
                <mxCell id="16" value="Bayar Cicilan Menurun?" style="text;html=1;strokeColor=none;fillColor=none;align=center;verticalAlign=middle;whiteSpace=wrap;rounded=0;fontSize=14;" vertex="1" parent="31">
                    <mxGeometry x="40" y="30" width="90" height="30" as="geometry"/>
                </mxCell>
                <mxCell id="32" style="edgeStyle=none;html=1;exitX=0.5;exitY=1;exitDx=0;exitDy=0;entryX=0.5;entryY=0;entryDx=0;entryDy=0;fontSize=14;" edge="1" parent="1" source="2" target="22">
                    <mxGeometry relative="1" as="geometry"/>
                </mxCell>
                <mxCell id="33" style="edgeStyle=none;html=1;exitX=0.5;exitY=1;exitDx=0;exitDy=0;entryX=0.5;entryY=0;entryDx=0;entryDy=0;fontSize=14;" edge="1" parent="1" source="22" target="4">
                    <mxGeometry relative="1" as="geometry"/>
                </mxCell>
                <mxCell id="GhluYq-a9iWKE2ZTerh3-66" style="edgeStyle=none;html=1;exitX=1;exitY=0.5;exitDx=0;exitDy=0;entryX=0;entryY=0.5;entryDx=0;entryDy=0;fontSize=14;" edge="1" parent="1" source="35" target="GhluYq-a9iWKE2ZTerh3-65">
                    <mxGeometry relative="1" as="geometry"/>
                </mxCell>
                <mxCell id="35" value="Tagihan = jumlah cicilan x (100% +&amp;nbsp; Suku Bunga)" style="rounded=0;whiteSpace=wrap;html=1;fontSize=14;" vertex="1" parent="1">
                    <mxGeometry x="358" y="487.75" width="280" height="57.5" as="geometry"/>
                </mxCell>
                <mxCell id="GhluYq-a9iWKE2ZTerh3-39" value="Yes" style="text;html=1;strokeColor=none;fillColor=none;align=center;verticalAlign=middle;whiteSpace=wrap;rounded=0;fontSize=14;" vertex="1" parent="1">
                    <mxGeometry x="298" y="476.5" width="60" height="30" as="geometry"/>
                </mxCell>
                <mxCell id="GhluYq-a9iWKE2ZTerh3-58" value="Bunga = Saldo Pokok x Suku Bunga&lt;br&gt;Saldo Pokok = Saldo Pokok - Jumlah Cicilan&lt;br&gt;Tagihan = Jumlah Cicilan + Bunga" style="rounded=0;whiteSpace=wrap;html=1;fontSize=14;" vertex="1" parent="1">
                    <mxGeometry x="661.75" y="634" width="280" height="80" as="geometry"/>
                </mxCell>
                <mxCell id="GhluYq-a9iWKE2ZTerh3-63" value="" style="group" vertex="1" connectable="0" parent="1">
                    <mxGeometry x="750.75" y="149" width="680" height="325" as="geometry"/>
                </mxCell>
                <mxCell id="GhluYq-a9iWKE2ZTerh3-45" style="edgeStyle=none;html=1;entryX=0;entryY=0.5;entryDx=0;entryDy=0;fontSize=14;" edge="1" parent="GhluYq-a9iWKE2ZTerh3-63" source="GhluYq-a9iWKE2ZTerh3-37">
                    <mxGeometry relative="1" as="geometry">
                        <mxPoint x="237.5" y="280" as="targetPoint"/>
                        <Array as="points">
                            <mxPoint x="90" y="280"/>
                        </Array>
                    </mxGeometry>
                </mxCell>
                <mxCell id="GhluYq-a9iWKE2ZTerh3-37" value="Saldo &amp;lt; tagihan?" style="rhombus;whiteSpace=wrap;html=1;fontSize=14;" vertex="1" parent="GhluYq-a9iWKE2ZTerh3-63">
                    <mxGeometry y="110" width="180" height="92.5" as="geometry"/>
                </mxCell>
                <mxCell id="GhluYq-a9iWKE2ZTerh3-38" value="Saldo = Nominal Pinjaman - Tagihan" style="rounded=0;whiteSpace=wrap;html=1;fontSize=14;" vertex="1" parent="GhluYq-a9iWKE2ZTerh3-63">
                    <mxGeometry x="240" width="150" height="60" as="geometry"/>
                </mxCell>
                <mxCell id="GhluYq-a9iWKE2ZTerh3-40" style="edgeStyle=none;html=1;exitX=0.5;exitY=0;exitDx=0;exitDy=0;fontSize=14;entryX=0;entryY=0.5;entryDx=0;entryDy=0;" edge="1" parent="GhluYq-a9iWKE2ZTerh3-63" source="GhluYq-a9iWKE2ZTerh3-37" target="GhluYq-a9iWKE2ZTerh3-38">
                    <mxGeometry relative="1" as="geometry">
                        <mxPoint x="90" y="25" as="targetPoint"/>
                        <Array as="points">
                            <mxPoint x="90" y="30"/>
                        </Array>
                    </mxGeometry>
                </mxCell>
                <mxCell id="GhluYq-a9iWKE2ZTerh3-43" value="Yes" style="text;html=1;strokeColor=none;fillColor=none;align=center;verticalAlign=middle;whiteSpace=wrap;rounded=0;fontSize=14;" vertex="1" parent="GhluYq-a9iWKE2ZTerh3-63">
                    <mxGeometry x="100" y="245" width="60" height="30" as="geometry"/>
                </mxCell>
                <mxCell id="GhluYq-a9iWKE2ZTerh3-48" style="edgeStyle=none;html=1;fontSize=14;" edge="1" parent="GhluYq-a9iWKE2ZTerh3-63" source="GhluYq-a9iWKE2ZTerh3-46" target="GhluYq-a9iWKE2ZTerh3-37">
                    <mxGeometry relative="1" as="geometry"/>
                </mxCell>
                <mxCell id="GhluYq-a9iWKE2ZTerh3-46" value="print sisa saldo" style="shape=parallelogram;perimeter=parallelogramPerimeter;whiteSpace=wrap;html=1;fixedSize=1;fontSize=14;" vertex="1" parent="GhluYq-a9iWKE2ZTerh3-63">
                    <mxGeometry x="225" y="137.5" width="180" height="42.5" as="geometry"/>
                </mxCell>
                <mxCell id="GhluYq-a9iWKE2ZTerh3-49" style="edgeStyle=none;html=1;exitX=0.5;exitY=1;exitDx=0;exitDy=0;entryX=0.5;entryY=0;entryDx=0;entryDy=0;fontSize=14;" edge="1" parent="GhluYq-a9iWKE2ZTerh3-63" source="GhluYq-a9iWKE2ZTerh3-38" target="GhluYq-a9iWKE2ZTerh3-46">
                    <mxGeometry relative="1" as="geometry"/>
                </mxCell>
                <mxCell id="GhluYq-a9iWKE2ZTerh3-50" value="print saldo" style="shape=parallelogram;perimeter=parallelogramPerimeter;whiteSpace=wrap;html=1;fixedSize=1;fontSize=14;" vertex="1" parent="GhluYq-a9iWKE2ZTerh3-63">
                    <mxGeometry x="225" y="255" width="120" height="60" as="geometry"/>
                </mxCell>
                <mxCell id="GhluYq-a9iWKE2ZTerh3-52" value="" style="edgeStyle=none;html=1;fontSize=14;" edge="1" parent="GhluYq-a9iWKE2ZTerh3-63" source="GhluYq-a9iWKE2ZTerh3-50">
                    <mxGeometry relative="1" as="geometry">
                        <mxPoint x="400" y="285" as="targetPoint"/>
                    </mxGeometry>
                </mxCell>
                <mxCell id="GhluYq-a9iWKE2ZTerh3-54" value="print lunas" style="shape=parallelogram;perimeter=parallelogramPerimeter;whiteSpace=wrap;html=1;fixedSize=1;fontSize=14;" vertex="1" parent="GhluYq-a9iWKE2ZTerh3-63">
                    <mxGeometry x="560" y="255" width="120" height="60" as="geometry"/>
                </mxCell>
                <mxCell id="GhluYq-a9iWKE2ZTerh3-56" value="" style="edgeStyle=none;html=1;fontSize=14;" edge="1" parent="GhluYq-a9iWKE2ZTerh3-63" target="GhluYq-a9iWKE2ZTerh3-54">
                    <mxGeometry relative="1" as="geometry">
                        <mxPoint x="520" y="285" as="sourcePoint"/>
                    </mxGeometry>
                </mxCell>
                <mxCell id="GhluYq-a9iWKE2ZTerh3-93" value="No" style="text;html=1;strokeColor=none;fillColor=none;align=center;verticalAlign=middle;whiteSpace=wrap;rounded=0;fontSize=14;" vertex="1" parent="GhluYq-a9iWKE2ZTerh3-63">
                    <mxGeometry x="100" y="60" width="60" height="30" as="geometry"/>
                </mxCell>
                <mxCell id="GhluYq-a9iWKE2ZTerh3-95" value="Saldo = 0" style="shape=hexagon;perimeter=hexagonPerimeter2;whiteSpace=wrap;html=1;fixedSize=1;fontSize=14;" vertex="1" parent="GhluYq-a9iWKE2ZTerh3-63">
                    <mxGeometry x="401" y="252.5" width="120" height="65" as="geometry"/>
                </mxCell>
                <mxCell id="GhluYq-a9iWKE2ZTerh3-65" value="1" style="ellipse;whiteSpace=wrap;html=1;fontSize=14;" vertex="1" parent="1">
                    <mxGeometry x="688" y="490.88" width="80" height="51.25" as="geometry"/>
                </mxCell>
                <mxCell id="GhluYq-a9iWKE2ZTerh3-67" style="edgeStyle=none;html=1;exitX=0.5;exitY=1;exitDx=0;exitDy=0;fontSize=14;" edge="1" parent="1" source="8" target="15">
                    <mxGeometry relative="1" as="geometry"/>
                </mxCell>
                <mxCell id="GhluYq-a9iWKE2ZTerh3-80" value="" style="edgeStyle=none;html=1;fontSize=14;" edge="1" parent="1" source="GhluYq-a9iWKE2ZTerh3-69" target="GhluYq-a9iWKE2ZTerh3-79">
                    <mxGeometry relative="1" as="geometry"/>
                </mxCell>
                <mxCell id="GhluYq-a9iWKE2ZTerh3-69" value="Tagihan = jumlah cicilan x (100% +&amp;nbsp; Suku Bunga + Bunga BI)" style="rounded=0;whiteSpace=wrap;html=1;fontSize=14;" vertex="1" parent="1">
                    <mxGeometry x="73" y="809" width="280" height="70" as="geometry"/>
                </mxCell>
                <mxCell id="GhluYq-a9iWKE2ZTerh3-70" style="edgeStyle=none;html=1;exitX=0.5;exitY=1;exitDx=0;exitDy=0;entryX=0.5;entryY=0;entryDx=0;entryDy=0;fontSize=14;" edge="1" parent="1" source="15" target="GhluYq-a9iWKE2ZTerh3-69">
                    <mxGeometry relative="1" as="geometry"/>
                </mxCell>
                <mxCell id="GhluYq-a9iWKE2ZTerh3-73" style="edgeStyle=none;html=1;exitX=1;exitY=0.5;exitDx=0;exitDy=0;entryX=0;entryY=0.5;entryDx=0;entryDy=0;fontSize=14;" edge="1" parent="1" source="GhluYq-a9iWKE2ZTerh3-71" target="GhluYq-a9iWKE2ZTerh3-58">
                    <mxGeometry relative="1" as="geometry"/>
                </mxCell>
                <mxCell id="GhluYq-a9iWKE2ZTerh3-71" value="Saldo Pokok = Saldo" style="shape=hexagon;perimeter=hexagonPerimeter2;whiteSpace=wrap;html=1;fixedSize=1;fontSize=14;" vertex="1" parent="1">
                    <mxGeometry x="421.75" y="641.5" width="160" height="65" as="geometry"/>
                </mxCell>
                <mxCell id="GhluYq-a9iWKE2ZTerh3-72" style="edgeStyle=none;html=1;exitX=1;exitY=0.5;exitDx=0;exitDy=0;entryX=0;entryY=0.5;entryDx=0;entryDy=0;fontSize=14;" edge="1" parent="1" source="15" target="GhluYq-a9iWKE2ZTerh3-71">
                    <mxGeometry relative="1" as="geometry"/>
                </mxCell>
                <mxCell id="GhluYq-a9iWKE2ZTerh3-74" style="edgeStyle=none;html=1;exitX=1;exitY=0.5;exitDx=0;exitDy=0;entryX=0;entryY=0.5;entryDx=0;entryDy=0;fontSize=14;" edge="1" parent="1" target="GhluYq-a9iWKE2ZTerh3-75">
                    <mxGeometry relative="1" as="geometry">
                        <mxPoint x="941.75" y="673.99" as="sourcePoint"/>
                    </mxGeometry>
                </mxCell>
                <mxCell id="GhluYq-a9iWKE2ZTerh3-75" value="1" style="ellipse;whiteSpace=wrap;html=1;fontSize=14;" vertex="1" parent="1">
                    <mxGeometry x="991.75" y="648.37" width="80" height="51.25" as="geometry"/>
                </mxCell>
                <mxCell id="GhluYq-a9iWKE2ZTerh3-79" value="1" style="ellipse;whiteSpace=wrap;html=1;fontSize=14;" vertex="1" parent="1">
                    <mxGeometry x="173" y="969" width="80" height="51.25" as="geometry"/>
                </mxCell>
                <mxCell id="GhluYq-a9iWKE2ZTerh3-86" style="edgeStyle=none;html=1;exitX=1;exitY=0.5;exitDx=0;exitDy=0;entryX=0;entryY=0.5;entryDx=0;entryDy=0;fontSize=14;" edge="1" parent="1" source="GhluYq-a9iWKE2ZTerh3-85" target="GhluYq-a9iWKE2ZTerh3-37">
                    <mxGeometry relative="1" as="geometry"/>
                </mxCell>
                <mxCell id="GhluYq-a9iWKE2ZTerh3-85" value="1" style="ellipse;whiteSpace=wrap;html=1;fontSize=14;" vertex="1" parent="1">
                    <mxGeometry x="581.75" y="274" width="80" height="62.5" as="geometry"/>
                </mxCell>
                <mxCell id="GhluYq-a9iWKE2ZTerh3-88" style="edgeStyle=none;html=1;exitX=1;exitY=0.5;exitDx=0;exitDy=0;fontSize=14;" edge="1" parent="1" source="GhluYq-a9iWKE2ZTerh3-54">
                    <mxGeometry relative="1" as="geometry">
                        <mxPoint x="1471.75" y="433.79999999999995" as="targetPoint"/>
                    </mxGeometry>
                </mxCell>
                <mxCell id="GhluYq-a9iWKE2ZTerh3-89" value="END" style="ellipse;whiteSpace=wrap;html=1;fontSize=14;" vertex="1" parent="1">
                    <mxGeometry x="1471.75" y="396.5" width="110" height="72.5" as="geometry"/>
                </mxCell>
                <mxCell id="GhluYq-a9iWKE2ZTerh3-90" value="No" style="text;html=1;strokeColor=none;fillColor=none;align=center;verticalAlign=middle;whiteSpace=wrap;rounded=0;fontSize=14;" vertex="1" parent="1">
                    <mxGeometry x="221.75" y="579" width="60" height="30" as="geometry"/>
                </mxCell>
                <mxCell id="GhluYq-a9iWKE2ZTerh3-91" value="Yes" style="text;html=1;strokeColor=none;fillColor=none;align=center;verticalAlign=middle;whiteSpace=wrap;rounded=0;fontSize=14;" vertex="1" parent="1">
                    <mxGeometry x="324.25" y="629" width="60" height="30" as="geometry"/>
                </mxCell>
                <mxCell id="GhluYq-a9iWKE2ZTerh3-92" value="No" style="text;html=1;strokeColor=none;fillColor=none;align=center;verticalAlign=middle;whiteSpace=wrap;rounded=0;fontSize=14;" vertex="1" parent="1">
                    <mxGeometry x="221.75" y="749" width="60" height="30" as="geometry"/>
                </mxCell>
            </root>
        </mxGraphModel>
    </diagram>
    <diagram id="ks604LZYkBkToFcWcFX2" name="Page-2">
        <mxGraphModel dx="1002" dy="417" grid="1" gridSize="10" guides="1" tooltips="1" connect="1" arrows="1" fold="1" page="1" pageScale="1" pageWidth="827" pageHeight="1169" math="0" shadow="0">
            <root>
                <mxCell id="0"/>
                <mxCell id="1" parent="0"/>
            </root>
        </mxGraphModel>
    </diagram>
</mxfile>